<svg width="40" height="40" viewBox="0 0 40 40" fill="none" xmlns="http://www.w3.org/2000/svg">
<circle cx="20" cy="20" r="20" fill="#EDECEC"/>
<path d="M20 0C24.2236 -5.03657e-08 28.3388 1.3371 31.7557 3.81966C35.1727 6.30222 37.716 9.80279 39.0211 13.8197C40.3263 17.8365 40.3263 22.1635 39.0211 26.1803C37.716 30.1972 35.1727 33.6978 31.7557 36.1803C28.3388 38.6629 24.2236 40 20 40C15.7764 40 11.6612 38.6629 8.24429 36.1803C4.82734 33.6978 2.28403 30.1972 0.97887 26.1803C-0.32629 22.1635 -0.32629 17.8365 0.97887 13.8197L20 20V0Z" fill="#5C4BD3"/>
<circle cx="20" cy="20" r="14.5" fill="#5C4BD3" stroke="white" stroke-width="3"/>
<path d="M20 12L21.8809 17.4111L27.6085 17.5279L23.0434 20.9889L24.7023 26.4721L20 23.2L15.2977 26.4721L16.9566 20.9889L12.3915 17.5279L18.1191 17.4111L20 12Z" fill="white"/>
</svg>
