<svg width="39" height="45" viewBox="0 0 39 45" fill="none" xmlns="http://www.w3.org/2000/svg">
<path d="M11.6495 0.627686C9.06651 0.627686 6.97261 2.72158 6.97261 5.30453H4.63419C2.48173 5.30453 0.736816 7.04945 0.736816 9.20191V15.4377C0.736816 19.1815 3.66944 22.2403 7.36279 22.4424C8.61821 27.338 12.7709 31.0724 17.8853 31.7102V34.9246H12.4289C9.41549 34.9246 6.97261 37.3674 6.97261 40.3809V41.9398C6.97261 43.2313 8.01956 44.2783 9.31104 44.2783H29.5774C30.8689 44.2783 31.9158 43.2313 31.9158 41.9398V40.3809C31.9158 37.3674 29.4729 34.9246 26.4595 34.9246H21.0032V31.7102C26.1175 31.0724 30.2702 27.338 31.5256 22.4424C35.219 22.2403 38.1516 19.1815 38.1516 15.4377V9.20191C38.1516 7.04945 36.4067 5.30453 34.2542 5.30453H31.9158C31.9158 2.72158 29.8219 0.627686 27.239 0.627686H11.6495ZM31.9158 19.2571V8.42243H34.2542C34.6847 8.42243 35.0337 8.77142 35.0337 9.20191V15.4377C35.0337 17.3232 33.6948 18.896 31.9158 19.2571ZM6.97261 8.42243V19.2571C5.19367 18.896 3.85472 17.3232 3.85472 15.4377V9.20191C3.85472 8.77142 4.2037 8.42243 4.63419 8.42243H6.97261Z" fill="#5C4BD3"/>
</svg>
