<svg width="38" height="43" viewBox="0 0 38 43" fill="none" xmlns="http://www.w3.org/2000/svg">
<path d="M5.71108 3.03173C5.54083 5.91305 6.52252 8.85549 8.65704 11.1023C4.75415 12.2241 1.65024 15.5454 1.04781 19.8662C0.365128 24.7627 1.37152 29.7457 3.90103 33.9934L4.63071 35.2187C4.65774 35.2641 4.68707 35.3081 4.71857 35.3505L7.662 39.3141C10.3154 42.8872 15.5433 43.2197 18.628 40.0116C18.9851 39.6402 19.5794 39.6402 19.9365 40.0116C23.0212 43.2197 28.2491 42.8872 30.9025 39.3141L33.8459 35.3505C33.8774 35.3081 33.9067 35.2641 33.9338 35.2187L34.6634 33.9934C37.193 29.7457 38.1994 24.7627 37.5167 19.8662C36.6671 13.7727 30.8424 9.66703 24.8178 10.9152L20.8637 11.7345L20.8573 11.7358C20.9205 10.1147 21.1734 8.3664 21.6708 6.87432C22.2722 5.07006 23.1095 3.98541 24.0394 3.59797C24.8342 3.2668 25.21 2.35401 24.8789 1.5592C24.5477 0.764386 23.6349 0.388531 22.8401 0.719703C20.6518 1.63149 19.4104 3.79489 18.7126 5.88828C18.6801 5.98604 18.6484 6.08442 18.6176 6.18335C18.1191 5.21791 17.4653 4.31185 16.6561 3.50263C14.3849 1.23147 11.351 0.184349 8.38207 0.360291C6.94132 0.445671 5.79622 1.59097 5.71108 3.03173ZM11.7923 19.2776C11.0715 19.4217 10.4109 19.929 9.99642 20.8964C9.57399 21.8821 9.42495 23.3416 9.88076 25.1662C10.0894 26.0016 9.58142 26.848 8.74604 27.0567C7.91067 27.2654 7.06429 26.7573 6.8556 25.922C6.27281 23.5891 6.38362 21.4108 7.13037 19.6682C7.88501 17.9072 9.30293 16.5955 11.1809 16.22C12.0252 16.0512 12.8465 16.5987 13.0154 17.4431C13.1842 18.2874 12.6366 19.1087 11.7923 19.2776Z" fill="#5C4BD3"/>
</svg>
