<svg width="45" height="40" viewBox="0 0 45 40" fill="none" xmlns="http://www.w3.org/2000/svg">
<path d="M21.05 4.04889C16.484 -0.517113 9.10921 -0.607032 4.43323 3.84628C0.743841 7.35999 -0.197503 12.6812 1.68568 17.1146L9.60602 17.1145L12.9376 11.2837C13.6507 10.0357 14.9927 9.28151 16.4295 9.32134C17.8663 9.36118 19.1646 10.1886 19.8074 11.4742L23.1764 18.2118L25.6415 14.8223C26.2757 13.9502 27.2428 13.3799 28.3128 13.247C29.3828 13.114 30.4601 13.4303 31.2885 14.1205L34.8813 17.1146L43.5353 17.1145C45.2593 12.7554 44.3229 7.60351 40.7701 4.12592C36.0715 -0.473088 28.5464 -0.432814 23.8974 4.21623L22.5573 5.55627L21.05 4.04889ZM21.4199 39.2266L8.00014 24.9093L11.8679 24.9093C13.2665 24.9093 14.5579 24.1598 15.2518 22.9454L16.0926 21.4739L19.0718 27.4318C19.6804 28.6491 20.8799 29.4607 22.2362 29.5729C23.5925 29.6851 24.9091 29.0818 25.7096 27.9811L29.4967 22.7739L30.9752 24.006C31.6757 24.5897 32.5586 24.9093 33.4703 24.9093L37.3181 24.9093L23.6867 39.2351C23.391 39.5458 22.9804 39.721 22.5515 39.7194C22.1226 39.7178 21.7133 39.5395 21.4199 39.2266ZM17.7162 12.52C17.4618 12.0111 16.9503 11.6812 16.3817 11.6594C15.8131 11.6376 15.2778 11.9272 14.9851 12.4151L10.7624 19.453H1.77221C0.911222 19.453 0.213257 20.1509 0.213257 21.0119C0.213257 21.8729 0.911222 22.5708 1.77221 22.5708H11.645C12.1926 22.5708 12.7001 22.2835 12.9818 21.814L16.1976 16.4544L21.1639 26.386C21.4073 26.8729 21.8871 27.1976 22.4297 27.2425C22.9722 27.2873 23.4988 27.046 23.819 26.6057L29.0748 19.3783L32.4723 22.2095C32.7525 22.443 33.1056 22.5708 33.4703 22.5708H42.824C43.685 22.5708 44.383 21.8729 44.383 21.0119C44.383 20.1509 43.685 19.453 42.824 19.453H34.0347L29.7915 15.917C29.4602 15.6409 29.0292 15.5143 28.6012 15.5675C28.1732 15.6207 27.7863 15.8489 27.5327 16.1977L22.8056 22.6979L17.7162 12.52Z" fill="#5C4BD3"/>
</svg>
