<svg width="44" height="44" viewBox="0 0 44 44" fill="none" xmlns="http://www.w3.org/2000/svg">
<path d="M0.890381 22.0545C0.890381 33.8632 10.4632 43.436 22.2718 43.436C34.0804 43.436 43.6532 33.8632 43.6532 22.0545C43.6532 10.2459 34.0804 0.673096 22.2718 0.673096C10.4632 0.673096 0.890381 10.2459 0.890381 22.0545ZM24.499 11.3638C24.499 12.5939 23.5019 13.591 22.2718 13.591C21.0417 13.591 20.0446 12.5939 20.0446 11.3638C20.0446 10.1337 21.0417 9.13658 22.2718 9.13658C23.5019 9.13658 24.499 10.1337 24.499 11.3638ZM22.2718 16.7092C23.2559 16.7092 24.0536 17.5069 24.0536 18.491L24.0536 32.7452C24.0536 33.7293 23.2559 34.527 22.2718 34.527C21.2878 34.527 20.49 33.7293 20.49 32.7452L20.49 18.491C20.49 17.5069 21.2878 16.7092 22.2718 16.7092Z" fill="#5C4BD3"/>
</svg>
